<svg width="38" height="35" viewBox="0 0 38 35" fill="none" xmlns="http://www.w3.org/2000/svg">
<path opacity="0.1" fill-rule="evenodd" clip-rule="evenodd" d="M2 4H13V8H8V15H2V4Z" fill="white"/>
<path fill-rule="evenodd" clip-rule="evenodd" d="M24 0H25.8751C26.4386 0 26.9791 0.223883 27.3777 0.622398C27.7762 1.02091 28 1.56141 28 2.125V30C28 30.5636 27.9012 30.9791 27.5027 31.3776C27.1041 31.7761 26.5636 32 26 32H4.12505C3.56146 32 3.02096 31.7761 2.62245 31.3776C2.22393 30.9791 2.00005 30.4386 2.00005 29.875V2.125C2.00005 1.56141 2.22393 1.02091 2.62245 0.622398C3.02096 0.223883 3.56146 0 4.12505 0H6.00005V2H8.00005V0H22V2H24V0ZM4.00005 30H26V8H26V6H17V8H4.00005V30Z" fill="#798288"/>
<path fill-rule="evenodd" clip-rule="evenodd" d="M29 23H35.75C35.9489 23 36.1397 23.079 36.2803 23.2197C36.421 23.3603 36.5 23.5511 36.5 23.75V34.25C36.5 34.4489 36.421 34.6397 36.2803 34.7803C36.1397 34.921 35.9489 35 35.75 35H21.5V32H20V35H16.25C16.0511 35 15.8603 34.921 15.7197 34.7803C15.579 34.6397 15.5 34.4489 15.5 34.25V11.75C15.5 11.5511 15.579 11.3603 15.7197 11.2197C15.8603 11.079 16.0511 11 16.25 11H28.25C28.4489 11 28.6397 11.079 28.7803 11.2197C28.921 11.3603 29 11.5511 29 11.75V23ZM20 14H18.5V15.5H20V14ZM23 14H21.5V15.5H23V14ZM24.5 14H26V15.5H24.5V14ZM20 17H18.5V18.5H20V17ZM21.5 17H23V18.5H21.5V17ZM26 17H24.5V18.5H26V17ZM18.5 20H20V21.5H18.5V20ZM23 20H21.5V21.5H23V20ZM24.5 20H26V21.5H24.5V20ZM20 23H18.5V24.5H20V23ZM21.5 23H23V24.5H21.5V23ZM26 23H24.5V24.5H26V23ZM18.5 26H20V27.5H18.5V26ZM23 26H21.5V27.5H23V26ZM24.5 26H26V27.5H24.5V26ZM26 29H24.5V30.5H26V29ZM29 26H30.5V27.5H29V26ZM33.5 26H32V27.5H33.5V26ZM32 29H33.5V30.5H32V29ZM30.5 29H29V30.5H30.5V29Z" fill="#0068AD"/>
</svg>
