<svg width="32" height="32" viewBox="0 0 32 32" fill="none" xmlns="http://www.w3.org/2000/svg">
<path opacity="0.1" d="M26 30H6V2H23L26 5V30Z" fill="white"/>
<path d="M5 6H1C0.447715 6 0 6.44772 0 7V11C0 11.5523 0.447715 12 1 12H5C5.55228 12 6 11.5523 6 11V7C6 6.44772 5.55228 6 5 6Z" fill="#D7853C"/>
<path d="M5 14H1C0.447715 14 0 14.4477 0 15V19C0 19.5523 0.447715 20 1 20H5C5.55228 20 6 19.5523 6 19V15C6 14.4477 5.55228 14 5 14Z" fill="#75AD15"/>
<path d="M5 22H1C0.447715 22 0 22.4477 0 23V27C0 27.5523 0.447715 28 1 28H5C5.55228 28 6 27.5523 6 27V23C6 22.4477 5.55228 22 5 22Z" fill="#407FB9"/>
<path d="M22.8 0H6C5.46957 0 4.96086 0.210714 4.58579 0.585786C4.21071 0.960859 4 1.46957 4 2V4H6V2H20V6C20 6.53043 20.2107 7.03914 20.5858 7.41421C20.9609 7.78929 21.4696 8 22 8H26V30H4C4 30.5304 4.21071 31.0391 4.58579 31.4142C4.96086 31.7893 5.46957 32 6 32H26C26.5304 32 27.0391 31.7893 27.4142 31.4142C27.7893 31.0391 28 30.5304 28 30V5.2L22.8 0ZM22 6V2L26 6H22Z" fill="#798288"/>
<path d="M24 12H8V14H24V12Z" fill="#D7853C"/>
<path d="M24 16H8V18H24V16Z" fill="#75AD15"/>
<path d="M24 20H8V22H24V20Z" fill="#75AD15"/>
<path d="M24 24H8V26H24V24Z" fill="#407FB9"/>
<line x1="8" y1="16.5" x2="24" y2="16.5" stroke="#D7853C"/>
<line x1="8" y1="21.5" x2="24" y2="21.5" stroke="#407FB9"/>
</svg>
