<svg width="32" height="32" viewBox="0 0 32 32" fill="none" xmlns="http://www.w3.org/2000/svg">
<g clip-path="url(#clip0_0_1)">
<path d="M30 30H2V2H17V4.92C17 4.92 23 3.92 23 7.92C22.92 12.25 17 11.28 17 11.28V18H21C21 18 20.85 23.29 24 23.21C27.15 23.13 26.94 18 26.94 18H30V30Z" fill="white"/>
<path d="M16 2V6C18.28 5.36 22.5 5.38 22.5 8C22.5 10 19 11 16 10V16H12.2C12.2 14.83 12.71 10 8 10C3.5 10 3.8 14.83 3.79 16H2V2H14M18 0H2C1.46957 0 0.960859 0.210714 0.585786 0.585786C0.210714 0.960859 0 1.46957 0 2L0 18H6C6 18 4.63 12 8 12C11.54 11.92 10 18 10 18H18V12.1096C19.58 12.1796 24 12.21 24 8C24 4 20.28 4 18 4V0Z" fill="#407FB9"/>
<path d="M16 19.8C14.84 19.8 10 19.58 10 24C10 27.5 12.32 28.19 16 28.21V30H2V18H0V30C0 30.5304 0.210714 31.0391 0.585786 31.4142C0.960859 31.7893 1.46957 32 2 32H18V26C17.3622 26.136 16.7121 26.2064 16.06 26.21C14.66 26.21 12 26.13 12 24C12 21.87 14.68 21.8 16.1 21.8C16.7384 21.8037 17.3748 21.8706 18 22V18H16V19.8Z" fill="#75AD15"/>
<path d="M26 16C26 16 27.17 22 24 22C20.83 22 22 16 22 16H18V18H19.8C19.8 19.17 19.71 24 24 24C28.29 24 28.2 19.17 28.21 18H30V30H18V32H30C30.5304 32 31.0391 31.7893 31.4142 31.4142C31.7893 31.0391 32 30.5304 32 30V16H26Z" fill="#798288"/>
<path d="M30 16.0044L29 16C29.64 18.28 29.62 16 27 16C25 16 25.5 16 24 16.0044L18 16.0044L18 12.2044C19.17 12.2044 24 12.7144 24 8.00441C24 3.50441 19.17 3.8044 18 3.7944V2.0044L30 2.0044L30 14.0044M32 18.0044V10.0044L32 2.0044C32 1.47397 31.5 0.499999 31.5 0.499999C30 5.31673e-05 30.155 3.8147e-06 30.155 3.8147e-06L16 0.00440428V6.0044C16 6.0044 22 4.63441 22 8.00441C22.08 11.5444 16 10.0044 16 10.0044L16 18.0044H21.69C21.69 18.0044 21.79 16 26 16C30 16 30.31 18.0044 30.31 18.0044H32Z" fill="#FF0000"/>
<path d="M31 1.95284e-08C32 0.171102 32.2232 1.49482 32 2C31.7768 2.50518 31.1105 2.02675 30.3527 1.69198C29.5949 1.3572 29.1615 0.676283 29.3847 0.171102C29.6079 -0.334079 30 1.95284e-08 31 1.95284e-08Z" fill="#FF0000"/>
<rect x="29" y="18" width="2.8" height="2" transform="rotate(-180 29 18)" fill="#FF0000"/>
<rect x="30.8" y="18" width="2.8" height="2" transform="rotate(-180 30.8 18)" fill="#FF0000"/>
<rect x="28" y="16" width="4" height="2" fill="#798288"/>
<rect x="18" y="16" width="4" height="2" fill="#798288"/>
<rect x="26" y="18" width="4.2" height="2" transform="rotate(-180 26 18)" fill="white"/>
<rect x="28.8" y="18" width="2.6" height="2" transform="rotate(-180 28.8 18)" fill="#798288"/>
<rect x="16" y="16" width="2" height="2" fill="#F5F5F5"/>
</g>
<defs>
<clipPath id="clip0_0_1">
<rect width="32" height="32" fill="white"/>
</clipPath>
</defs>
</svg>
