<svg width="32" height="32" viewBox="0 0 32 32" fill="none" xmlns="http://www.w3.org/2000/svg">
<path d="M16 31C7.7 31 1 24.3 1 16C1 7.7 7.7 1 16 1C24.3 1 31 7.7 31 16C31 24.3 24.3 31 16 31ZM16 3C8.8 3 3 8.8 3 16C3 23.2 8.8 29 16 29C23.2 29 29 23.2 29 16C29 8.8 23.2 3 16 3Z" fill="#5AB711"/>
<g clip-path="url(#clip0_0_1)">
<path fill-rule="evenodd" clip-rule="evenodd" d="M11.5174 7H18.4411C19.8199 7 21.0085 7.23173 21.9909 7.7142C22.9661 8.18526 23.7176 8.84879 24.2291 9.70701C24.7464 10.5535 25 11.5217 25 12.5998C25 13.759 24.749 14.7759 24.2293 15.6343C23.7161 16.4876 22.9614 17.1368 21.9824 17.5841L21.9798 17.5853C21.0006 18.0243 19.8163 18.2351 18.4411 18.2351H14.6142V19.1082H18.6761V21.7301H14.6142V25H11.5174V21.7301H9V19.1082H11.5174V18.2351H9V15.625H11.5174V7ZM12.2793 7.75V16.375H9.7619V17.4851H12.2793V19.8582H9.7619V20.9801H12.2793V24.25H13.8523V20.9801H17.9142V19.8582H13.8523V17.4851H18.4411C19.7408 17.4851 20.8099 17.2853 21.6629 16.9033C22.5154 16.5134 23.1466 15.9623 23.5737 15.2521L23.5743 15.2511C24.011 14.5302 24.2381 13.6517 24.2381 12.5998C24.2381 11.6409 24.0138 10.8089 23.5752 10.092L23.5728 10.0882C23.1441 9.36797 22.51 8.80019 21.6542 8.38701L21.6518 8.38581C20.8021 7.96829 19.7372 7.75 18.4411 7.75H12.2793ZM13.8523 8.87193H18.4411C19.4068 8.87193 20.2238 9.0445 20.8622 9.42265C21.4836 9.7861 21.9489 10.2598 22.2371 10.8473C22.5214 11.4108 22.665 12.0041 22.665 12.6235C22.665 13.3594 22.5173 14.0184 22.2074 14.5878C21.8989 15.1695 21.419 15.6136 20.7869 15.9214C20.1503 16.2315 19.3616 16.375 18.4411 16.375H13.8523V8.87193ZM14.6142 9.62193V15.625H18.4411C19.288 15.625 19.9506 15.492 20.449 15.2492C20.9513 15.0046 21.3061 14.6675 21.5328 14.2391L21.5349 14.2351C21.7755 13.7939 21.9031 13.2609 21.9031 12.6235C21.9031 12.122 21.7877 11.6419 21.5538 11.1792L21.5517 11.175C21.3373 10.737 20.9845 10.3664 20.4721 10.0669L20.4701 10.0657C19.9897 9.78089 19.3234 9.62193 18.4411 9.62193H14.6142Z" fill="#5AB711"/>
</g>
<defs>
<clipPath id="clip0_0_1">
<rect width="16" height="18" fill="white" transform="translate(9 7)"/>
</clipPath>
</defs>
</svg>
